<?xml version="1.0" encoding="UTF-8" standalone="no"?>
<svg
   version="1.0"
   width="1297mm"
   height="917mm"
   viewBox="0 0 3676.5354 2599.3701"
   preserveAspectRatio="xMidYMid meet"
   id="svg65"
   xmlns="http://www.w3.org/2000/svg"
   xmlns:svg="http://www.w3.org/2000/svg">
  <defs
     id="defs69">
    <linearGradient
       id="linearGradient36872">
      <stop
         style="stop-color:#000000;stop-opacity:1;"
         offset="0"
         id="stop36870" />
    </linearGradient>
    <filter
       x="-0.030543336"
       width="1.0610867"
       y="-0.24313035"
       height="1.4862607"
       style="color-interpolation-filters:sRGB"
       id="filter29263">
      <feGaussianBlur
         result="result11"
         stdDeviation="2"
         id="feGaussianBlur29241" />
      <feGaussianBlur
         in="SourceGraphic"
         stdDeviation="0.5"
         result="result8"
         id="feGaussianBlur29243" />
      <feTurbulence
         result="result9"
         baseFrequency="0.08"
         numOctaves="1"
         type="fractalNoise"
         id="feTurbulence29245" />
      <feDisplacementMap
         result="result10"
         in2="result11"
         xChannelSelector="G"
         scale="100"
         yChannelSelector="R"
         id="feDisplacementMap29247" />
      <feConvolveMatrix
         bias="0"
         result="result0"
         preserveAlpha="true"
         targetY="1"
         targetX="1"
         divisor="1"
         in="result10"
         kernelMatrix="1 1 1 1 -8 1 1 1 1 "
         order="3 3"
         id="feConvolveMatrix29249" />
      <feColorMatrix
         in="result0"
         values="0 -6 0 0 1 0 -6 0 0 1 0 -6 0 0 1 0 0 0 1 0 "
         result="result3"
         id="feColorMatrix29251" />
      <feComposite
         operator="in"
         in2="SourceGraphic"
         in="result3"
         result="fbSourceGraphic"
         id="feComposite29253" />
      <feBlend
         in2="result8"
         mode="multiply"
         result="result12"
         id="feBlend29255" />
      <feGaussianBlur
         stdDeviation="0.01"
         in="result12"
         result="result7"
         id="feGaussianBlur29257" />
      <feBlend
         mode="screen"
         in2="result12"
         id="feBlend29259" />
      <feComposite
         operator="in"
         in2="SourceGraphic"
         id="feComposite29261" />
    </filter>
  </defs>
  <g
     transform="matrix(0.1,0,0,-0.1,0.15334921,35.846651)"
     fill="#000000"
     stroke="none"
     id="g63">
    <path
       d="m 30,291 c 0,-6 5,-11 10,-11 15,0 13,-193 -2,-208 -9,-9 -2,-12 31,-12 37,0 42,2 32,14 -7,8 -11,32 -9,53 2,29 8,39 23,41 50,9 76,82 39,113 -20,17 -124,26 -124,10 z m 98,-40 c 5,-35 -7,-71 -23,-71 -11,0 -15,13 -15,51 0,43 3,50 18,47 9,-2 18,-14 20,-27 z"
       id="path57" />
    <path
       d="m 190,291 c 0,-5 5,-13 10,-16 6,-3 10,-45 10,-92 0,-66 -4,-91 -17,-105 -15,-17 -14,-18 22,-18 37,0 37,1 21,19 -14,15 -16,35 -14,102 l 3,84 24,-97 c 14,-54 28,-98 32,-98 4,0 12,20 18,44 13,54 14,66 2,47 -9,-14 -12,-7 -38,99 -8,30 -14,35 -41,38 -18,2 -32,-1 -32,-7 z"
       id="path59" />
    <path
       d="m 335,288 c -10,-32 -25,-94 -24,-103 1,-5 7,8 14,30 13,40 13,39 14,-45 1,-55 -3,-90 -11,-98 -9,-9 -2,-12 32,-12 34,0 41,3 32,12 -15,15 -17,208 -2,208 6,0 10,5 10,10 0,15 -60,12 -65,-2 z"
       id="path61" />
  </g>
  <text
     xml:space="preserve"
     style="font-style:normal;font-weight:normal;font-size:30px;line-height:1.25;font-family:sans-serif;fill:#000000;fill-opacity:1;stroke:none;stroke-width:0.75"
     x="42.707546"
     y="26.299261"
     id="text3244"><tspan
       id="tspan3242"
       style="stroke-width:0.75"
       x="42.707546"
       y="26.299261" /></text>
  <text
     xml:space="preserve"
     style="font-style:normal;font-variant:normal;font-weight:normal;font-stretch:normal;font-size:30px;line-height:1.25;font-family:'Century Gothic';-inkscape-font-specification:'Century Gothic, Normal';font-variant-ligatures:normal;font-variant-caps:normal;font-variant-numeric:normal;font-variant-east-asian:normal;fill:#000000;fill-opacity:1;stroke:none;stroke-width:0.75"
     x="44.701073"
     y="7.7440977"
     id="text11558"><tspan
       id="tspan13606"
       x="44.701073"
       y="7.7440977"></tspan></text>
  <text
     xml:space="preserve"
     style="font-style:normal;font-variant:normal;font-weight:normal;font-stretch:normal;font-size:27.408px;line-height:1.25;font-family:'Berlin Sans FB Demi';-inkscape-font-specification:'Berlin Sans FB Demi, Normal';font-variant-ligatures:normal;font-variant-caps:normal;font-variant-numeric:normal;font-variant-east-asian:normal;fill:#000000;fill-opacity:1;stroke:none;stroke-width:0.6852;filter:url(#filter29263)"
     x="52.990273"
     y="25.775705"
     id="text15854"
     transform="matrix(0.84146372,0,0,1.1643145,1.0764352,-0.10247075)"><tspan
       id="tspan15852"
       style="font-style:normal;font-variant:normal;font-weight:normal;font-stretch:normal;font-size:27.408px;font-family:'Berlin Sans FB Demi';-inkscape-font-specification:'Berlin Sans FB Demi, Normal';font-variant-ligatures:normal;font-variant-caps:normal;font-variant-numeric:normal;font-variant-east-asian:normal;stroke-width:0.6852"
       x="52.990273"
       y="25.775705">   aper</tspan></text>
  <g
     id="layer1">
    <path
       d="m 50.586465,7.2695541 c 0,0.6 0.5,1.1 1,1.1 1.5,0 1.3,19.3000009 -0.2,20.8000009 -0.9,0.9 -0.2,1.2 3.1,1.2 3.7,0 4.2,-0.200001 3.2,-1.400001 -0.7,-0.8 -1.1,-3.2 -0.9,-5.3 0.2,-2.899998 0.8,-3.899999 2.3,-4.099998 5,-0.9 7.6,-8.200001 3.9,-11.3000019 -2,-1.7 -12.4,-2.6 -12.4,-1 z m 9.8,4.0000009 c 0.5,3.500001 -0.7,7.100001 -2.3,7.100001 -1.1,0 -1.5,-1.300001 -1.5,-5.1 0,-4.3000019 0.3,-5.0000019 1.8,-4.7000019 0.9,0.200001 1.8,1.4000014 2,2.7000009 z"
       id="path29371"
       style="stroke-width:0.75" />
  </g>
  <g
     id="layer2">
    <path
       d="m 126.0985,7.5995787 c -1,3.1999983 -2.5,9.3999993 -2.4,10.2999993 0.1,0.5 0.7,-0.8 1.4,-3 1.3,-4 1.3,-3.9 1.4,4.5 0.1,5.499999 -0.3,9 -1.1,9.8 -0.9,0.9 -0.2,1.2 3.2,1.2 3.4,0 4.1,-0.3 3.2,-1.2 -1.5,-1.5 -1.7,-20.8000003 -0.2,-20.8000003 0.6,0 1,-0.499999 1,-0.999999 0,-1.5 -6,-1.2 -6.5,0.2 z m -14.5,-0.3 c 0,0.499999 0.5,1.3 1,1.6 0.6,0.3 1,4.4999993 1,9.1999993 0,6.6 -0.4,9.1 -1.7,10.5 -1.5,1.699999 -1.4,1.8 2.2,1.8 3.7,0 3.7,-0.100001 2.1,-1.900001 -1.4,-1.5 -1.6,-3.499999 -1.4,-10.2 l 0.3,-8.3999999 2.4,9.7000009 c 1.4,5.4 2.8,9.799999 3.2,9.799999 0.4,0 1.2,-1.999999 1.8,-4.399999 1.3,-5.4 1.4,-6.6 0.2,-4.7 -0.9,1.4 -1.2,0.699999 -3.8,-9.9 -0.8,-2.9999993 -1.4,-3.4999993 -4.1,-3.7999993 -1.8,-0.2 -3.2,0.1 -3.2,0.7 z"
       id="path32686"
       style="stroke-width:0.75" />
  </g>
  <rect
     style="fill:none;fill-opacity:1;stroke:#000000;stroke-width:0.999997;stroke-miterlimit:4;stroke-dasharray:none;stroke-opacity:1"
     id="rect36766"
     width="42.937569"
     height="36.496933"
     x="-0.15334846"
     y="-0.15334846" />
  <text
     xml:space="preserve"
     style="font-style:normal;font-variant:normal;font-weight:normal;font-stretch:normal;font-size:25.509px;line-height:1.25;font-family:'Berlin Sans FB Demi';-inkscape-font-specification:'Berlin Sans FB Demi, Normal';font-variant-ligatures:normal;font-variant-caps:normal;font-variant-numeric:normal;font-variant-east-asian:normal;fill:#000000;fill-opacity:1;stroke:none;stroke-width:0.637725"
     x="155.34236"
     y="25.528393"
     id="text72688"
     transform="scale(0.85030007,1.1760554)"><tspan
       id="tspan72686"
       style="font-style:normal;font-variant:normal;font-weight:normal;font-stretch:normal;font-size:25.509px;font-family:'Berlin Sans FB Demi';-inkscape-font-specification:'Berlin Sans FB Demi, Normal';font-variant-ligatures:normal;font-variant-caps:normal;font-variant-numeric:normal;font-variant-east-asian:normal;stroke-width:0.637725"
       x="155.34236"
       y="25.528393">asters</tspan></text>
</svg>
