<?xml version="1.0" encoding="UTF-8"?>
<svg width="1297mm" height="917mm" version="1.0" viewBox="0 0 3676.5 2599.4" xmlns="http://www.w3.org/2000/svg">
 <defs>
  <filter id="filter29263" x="-.030543" y="-.24313" width="1.0611" height="1.4863" style="color-interpolation-filters:sRGB">
   <feGaussianBlur result="result11" stdDeviation="2"/>
   <feGaussianBlur in="SourceGraphic" result="result8" stdDeviation="0.5"/>
   <feTurbulence baseFrequency="0.08" result="result9" type="fractalNoise"/>
   <feDisplacementMap in2="result11" result="result10" scale="100" xChannelSelector="G" yChannelSelector="R"/>
   <feConvolveMatrix bias="0" divisor="1" in="result10" kernelMatrix="1 1 1 1 -8 1 1 1 1 " order="3 3" preserveAlpha="true" result="result0" targetX="1" targetY="1"/>
   <feColorMatrix in="result0" result="result3" values="0 -6 0 0 1 0 -6 0 0 1 0 -6 0 0 1 0 0 0 1 0 "/>
   <feComposite in="result3" in2="SourceGraphic" operator="in" result="fbSourceGraphic"/>
   <feBlend in2="result8" mode="multiply" result="result12"/>
   <feGaussianBlur in="result12" result="result7" stdDeviation="0.01"/>
   <feBlend in2="result12" mode="screen"/>
   <feComposite in2="SourceGraphic" operator="in"/>
  </filter>
 </defs>
 <g transform="matrix(.1 0 0 -.1 .15335 35.847)">
  <path d="m30 291c0-6 5-11 10-11 15 0 13-193-2-208-9-9-2-12 31-12 37 0 42 2 32 14-7 8-11 32-9 53 2 29 8 39 23 41 50 9 76 82 39 113-20 17-124 26-124 10zm98-40c5-35-7-71-23-71-11 0-15 13-15 51 0 43 3 50 18 47 9-2 18-14 20-27z"/>
  <path d="m190 291c0-5 5-13 10-16 6-3 10-45 10-92 0-66-4-91-17-105-15-17-14-18 22-18 37 0 37 1 21 19-14 15-16 35-14 102l3 84 24-97c14-54 28-98 32-98s12 20 18 44c13 54 14 66 2 47-9-14-12-7-38 99-8 30-14 35-41 38-18 2-32-1-32-7z"/>
  <path d="m335 288c-10-32-25-94-24-103 1-5 7 8 14 30 13 40 13 39 14-45 1-55-3-90-11-98-9-9-2-12 32-12s41 3 32 12c-15 15-17 208-2 208 6 0 10 5 10 10 0 15-60 12-65-2z"/>
 </g>
 <text x="42.707546" y="26.299261" style="fill:#000000;font-family:sans-serif;font-size:30px;line-height:1.25;stroke-width:.75" xml:space="preserve"><tspan x="42.707546" y="26.299261" style="stroke-width:.75"/></text>
 <text x="44.701073" y="7.7440977" style="fill:#000000;font-family:'Century Gothic';font-size:30px;font-variant-caps:normal;font-variant-east-asian:normal;font-variant-ligatures:normal;font-variant-numeric:normal;line-height:1.25;stroke-width:.75" xml:space="preserve"><tspan x="44.701073" y="7.7440977"/></text>
 <text transform="matrix(.84146 0 0 1.1643 1.0764 -.10247)" x="52.990273" y="25.775705" style="fill:#000000;filter:url(#filter29263);font-family:'Berlin Sans FB Demi';font-size:27.408px;font-variant-caps:normal;font-variant-east-asian:normal;font-variant-ligatures:normal;font-variant-numeric:normal;line-height:1.25;stroke-width:.6852" xml:space="preserve"><tspan x="52.990273" y="25.775705" style="font-family:'Berlin Sans FB Demi';font-size:27.408px;font-variant-caps:normal;font-variant-east-asian:normal;font-variant-ligatures:normal;font-variant-numeric:normal;stroke-width:.6852">   aper</tspan></text>
 <path d="m50.586 7.2696c0 0.6 0.5 1.1 1 1.1 1.5 0 1.3 19.3-0.2 20.8-0.9 0.9-0.2 1.2 3.1 1.2 3.7 0 4.2-0.2 3.2-1.4-0.7-0.8-1.1-3.2-0.9-5.3 0.2-2.9 0.8-3.9 2.3-4.1 5-0.9 7.6-8.2 3.9-11.3-2-1.7-12.4-2.6-12.4-1zm9.8 4c0.5 3.5-0.7 7.1-2.3 7.1-1.1 0-1.5-1.3-1.5-5.1 0-4.3 0.3-5 1.8-4.7 0.9 0.2 1.8 1.4 2 2.7z" style="stroke-width:.75"/>
 <path d="m126.1 7.5996c-1 3.2-2.5 9.4-2.4 10.3 0.1 0.5 0.7-0.8 1.4-3 1.3-4 1.3-3.9 1.4 4.5 0.1 5.5-0.3 9-1.1 9.8-0.9 0.9-0.2 1.2 3.2 1.2s4.1-0.3 3.2-1.2c-1.5-1.5-1.7-20.8-0.2-20.8 0.6 0 1-0.5 1-1 0-1.5-6-1.2-6.5 0.2zm-14.5-0.3c0 0.5 0.5 1.3 1 1.6 0.6 0.3 1 4.5 1 9.2 0 6.6-0.4 9.1-1.7 10.5-1.5 1.7-1.4 1.8 2.2 1.8 3.7 0 3.7-0.1 2.1-1.9-1.4-1.5-1.6-3.5-1.4-10.2l0.3-8.4 2.4 9.7c1.4 5.4 2.8 9.8 3.2 9.8s1.2-2 1.8-4.4c1.3-5.4 1.4-6.6 0.2-4.7-0.9 1.4-1.2 0.7-3.8-9.9-0.8-3-1.4-3.5-4.1-3.8-1.8-0.2-3.2 0.1-3.2 0.7z" style="stroke-width:.75"/>
 <rect x="-.15335" y="-.15335" width="42.938" height="36.497" style="fill:none;stroke:#000"/>
 <text transform="scale(.8503 1.1761)" x="155.34236" y="25.528393" style="fill:#000000;font-family:'Berlin Sans FB Demi';font-size:25.509px;font-variant-caps:normal;font-variant-east-asian:normal;font-variant-ligatures:normal;font-variant-numeric:normal;line-height:1.25;stroke-width:.63772" xml:space="preserve"><tspan x="155.34236" y="25.528393" style="font-family:'Berlin Sans FB Demi';font-size:25.509px;font-variant-caps:normal;font-variant-east-asian:normal;font-variant-ligatures:normal;font-variant-numeric:normal;stroke-width:.63772">asters</tspan></text>
</svg>
