<?xml version="1.0" standalone="no"?>
<!DOCTYPE svg PUBLIC "-//W3C//DTD SVG 20010904//EN"
 "http://www.w3.org/TR/2001/REC-SVG-20010904/DTD/svg10.dtd">


<svg version="1.0" xmlns="http://www.w3.org/2000/svg"
 width="43.000000pt" height="36.000000pt" viewBox="0 0 43.000000 36.000000"
 preserveAspectRatio="xMidYMid meet">

<g transform="translate(0.000000,36.000000) scale(0.100000,-0.100000)"
fill="#000000" stroke="none">
<path d="M0 180 l0 -180 215 0 215 0 0 180 0 180 -215 0 -215 0 0 -180z m418
3 l2 -163 -205 0 -205 0 0 158 c0 87 3 162 7 166 4 3 95 5 202 4 l196 -3 3
-162z"/>
<path d="M30 291 c0 -6 5 -11 10 -11 15 0 13 -193 -2 -208 -9 -9 -2 -12 31
-12 37 0 42 2 32 14 -7 8 -11 32 -9 53 2 29 8 39 23 41 50 9 76 82 39 113 -20
17 -124 26 -124 10z m98 -40 c5 -35 -7 -71 -23 -71 -11 0 -15 13 -15 51 0 43
3 50 18 47 9 -2 18 -14 20 -27z"/>
<path d="M190 291 c0 -5 5 -13 10 -16 6 -3 10 -45 10 -92 0 -66 -4 -91 -17
-105 -15 -17 -14 -18 22 -18 37 0 37 1 21 19 -14 15 -16 35 -14 102 l3 84 24
-97 c14 -54 28 -98 32 -98 4 0 12 20 18 44 13 54 14 66 2 47 -9 -14 -12 -7
-38 99 -8 30 -14 35 -41 38 -18 2 -32 -1 -32 -7z"/>
<path d="M335 288 c-10 -32 -25 -94 -24 -103 1 -5 7 8 14 30 13 40 13 39 14
-45 1 -55 -3 -90 -11 -98 -9 -9 -2 -12 32 -12 34 0 41 3 32 12 -15 15 -17 208
-2 208 6 0 10 5 10 10 0 15 -60 12 -65 -2z"/>
</g>
</svg>
